# xmcd
# 
# Track frame offsets:
#     150
#     23935
#     41002
#     62143
#     87222
#     111841
#     132557
#     158293
#     191633
#     201122
#     220228
#     226703
#     244115
#     254828
# 
# Disc length: 4095
# 
# Revision: 2
# Processed by: cddbd v1.5.2PL0 Copyright (c) Steve Scherf et al.
# Submitted via: fre:ac v1.1beta1pre4
# 
DISCID=c30ffd0e
DTITLE=Greensky Bluegrass - Handguns
DYEAR=2011
DGENRE=Bluegrass
TTITLE0=Don't Lie
TTITLE1=Handguns
TTITLE2=Cold Feet
TTITLE3=Beauty and Pain
TTITLE4=No Idea
TTITLE5=I'd Probably Kill You
TTITLE6=Jaywalking
TTITLE7=Lose My Way
TTITLE8=Blood Sucking F(r)iends
TTITLE9=Better Off
TTITLE10=Before Bring Out Your Dead
TTITLE11=Bring Out Your Dead
TTITLE12=Hot Dogs (On Parade)
TTITLE13=All Four
EXTD=
EXTT0=
EXTT1=
EXTT2=
EXTT3=
EXTT4=
EXTT5=
EXTT6=
EXTT7=
EXTT8=
EXTT9=
EXTT10=
EXTT11=
EXTT12=
EXTT13=
PLAYORDER=
